<svg class="icon" viewBox="0 0 1024 1024" xmlns="http://www.w3.org/2000/svg" width="256" height="256"><path d="M658.4 537.2c-7.6 70.4-70.8 121.2-141.2 113.6-70.4-7.6-121.2-70.8-113.6-141.2 7.6-70.4 70.8-121.2 141.2-113.6 70.2 7.6 121.2 70.8 113.6 141.2zm-171.6 470.2C193.4 992-16.4 731 20.2 448.6c22.4-173.2 131.6-313.8 278.2-384 322-154.2 699.4 74.8 709.4 433.2 8.2 294-236.8 524.4-521 509.6zm359.8-360c55.8-236-321-411.8-474.4-468.4-115 112.6-138.2 377.2-67.6 688.8 137.6 31.6 338.2-52.8 542-220.4z"/></svg>